<svg width="17" height="17" viewBox="0 0 17 17" fill="none" xmlns="http://www.w3.org/2000/svg">
<path d="M8.79732 1.93262C4.98737 1.93262 1.89815 5.02184 1.89815 8.83179C1.89815 12.6417 4.98737 15.731 8.79732 15.731C12.6073 15.731 15.6965 12.6417 15.6965 8.83179C15.6965 5.02184 12.6073 1.93262 8.79732 1.93262ZM12.1129 7.13317C12.1175 7.20555 12.1175 7.28101 12.1175 7.35493C12.1175 9.61564 10.3958 12.2198 7.24962 12.2198C6.27943 12.2198 5.38007 11.938 4.6224 11.4529C4.76099 11.4683 4.89343 11.4744 5.03511 11.4744C5.83591 11.4744 6.57203 11.2034 7.15876 10.7445C6.40725 10.7291 5.77585 10.2363 5.56025 9.55866C5.82359 9.59716 6.06075 9.59716 6.33179 9.52786C5.94483 9.44925 5.59702 9.23909 5.34745 8.93309C5.09788 8.6271 4.96194 8.24413 4.96273 7.84927V7.82771C5.18911 7.95553 5.45553 8.03407 5.73427 8.04485C5.49995 7.88869 5.30778 7.67712 5.17481 7.4289C5.04183 7.18068 4.97216 6.90349 4.97197 6.6219C4.97197 6.30312 5.05513 6.01206 5.20451 5.7595C5.63402 6.28824 6.16998 6.72067 6.77756 7.02871C7.38514 7.33674 8.05074 7.51348 8.7311 7.54743C8.48932 6.38474 9.35787 5.4438 10.402 5.4438C10.8948 5.4438 11.3383 5.65016 11.6509 5.9828C12.0375 5.91042 12.4071 5.76566 12.7366 5.57162C12.6088 5.9674 12.3408 6.30158 11.9851 6.51256C12.3301 6.4756 12.6627 6.38012 12.9707 6.24614C12.7382 6.58802 12.4471 6.8914 12.1129 7.13317Z" fill="white"/>
</svg>
