<svg width="17" height="17" viewBox="0 0 17 17" fill="none" xmlns="http://www.w3.org/2000/svg">
<path d="M15.2037 3.0835H2.39093C2.11835 3.0835 1.89813 3.30372 1.89813 3.57629V13.4322C1.89813 13.7048 2.11835 13.925 2.39093 13.925H15.2037C15.4763 13.925 15.6965 13.7048 15.6965 13.4322V3.57629C15.6965 3.30372 15.4763 3.0835 15.2037 3.0835ZM13.9594 4.76055L9.10068 8.54123C8.98056 8.63517 8.8127 8.63517 8.69258 8.54123L3.83236 4.76055C3.81404 4.74641 3.8006 4.72689 3.79393 4.70473C3.78726 4.68257 3.78769 4.65888 3.79516 4.63697C3.80263 4.61507 3.81677 4.59605 3.83559 4.58259C3.85442 4.56912 3.87698 4.56189 3.90012 4.56189H13.8916C13.9147 4.56189 13.9373 4.56912 13.9561 4.58259C13.975 4.59605 13.9891 4.61507 13.9966 4.63697C14.004 4.65888 14.0045 4.68257 13.9978 4.70473C13.9911 4.72689 13.9777 4.74641 13.9594 4.76055Z" fill="white"/>
</svg>
