<svg width="17" height="16" viewBox="0 0 17 16" fill="none" xmlns="http://www.w3.org/2000/svg">
<path d="M10.9315 10.6103L12.0354 9.50647C12.1841 9.35964 12.3722 9.25913 12.5769 9.21714C12.7816 9.17515 12.9941 9.19349 13.1885 9.26993L14.5339 9.80708C14.7304 9.88685 14.8989 10.023 15.0182 10.1984C15.1375 10.3738 15.2021 10.5806 15.2041 10.7927V13.2567C15.2029 13.4009 15.1726 13.5435 15.1149 13.6758C15.0572 13.808 14.9734 13.9272 14.8684 14.0262C14.7634 14.1252 14.6395 14.2019 14.5041 14.2517C14.3687 14.3016 14.2246 14.3235 14.0805 14.3162C4.65329 13.7297 2.75109 5.74643 2.39134 2.69108C2.37464 2.54104 2.3899 2.38917 2.43611 2.24545C2.48232 2.10173 2.55844 1.96942 2.65946 1.85724C2.76048 1.74505 2.8841 1.65552 3.0222 1.59454C3.1603 1.53356 3.30975 1.50251 3.46072 1.50344H5.84093C6.05333 1.50407 6.26068 1.56822 6.43632 1.68766C6.61196 1.8071 6.74786 1.97635 6.82652 2.17364L7.36367 3.51898C7.44265 3.71268 7.46279 3.92536 7.4216 4.13045C7.38041 4.33554 7.2797 4.52394 7.13206 4.67213L6.02819 5.77599C6.02819 5.77599 6.6639 10.0781 10.9315 10.6103Z" fill="white"/>
</svg>
