<svg width="17" height="17" viewBox="0 0 17 17" fill="none" xmlns="http://www.w3.org/2000/svg">
<path d="M8.78036 1.98828C5.24331 1.98828 2.37399 4.85606 2.37399 8.39465C2.37399 11.9332 5.24208 14.801 8.78036 14.801C12.3187 14.801 15.1867 11.9329 15.1867 8.39465C15.1867 4.85636 12.3177 1.98828 8.78036 1.98828ZM12.6248 8.24866C12.537 9.25366 12.1077 9.77941 11.7624 10.0431C11.4171 10.3067 11.0026 10.4225 10.645 10.3585C10.4793 10.3288 10.321 10.2668 10.1793 10.1759C10.0376 10.0851 9.9151 9.96718 9.81893 9.829C9.45654 10.1815 8.96926 10.3761 8.46374 10.3702C8.24054 10.3719 8.01948 10.3266 7.81493 10.2373C7.61037 10.148 7.42689 10.0166 7.27641 9.85179C6.9259 9.46926 6.75281 8.91671 6.80455 8.33552C6.89695 7.25752 7.75658 6.56791 8.55614 6.44194C9.3939 6.30981 10.1648 6.64337 10.4935 7.04131L10.612 7.18483L10.4168 8.73653C10.3801 9.1782 10.5178 9.45971 10.7953 9.50961C10.8689 9.52254 11.0448 9.5056 11.2379 9.35776C11.4449 9.19914 11.7042 8.86497 11.7646 8.17289C11.8369 7.35546 11.6306 6.65785 11.1717 6.15581C10.6946 5.63529 9.9677 5.35994 9.07019 5.35994C7.407 5.35994 5.93446 6.72838 5.78754 8.40913C5.71732 9.21608 5.96218 9.97007 6.47746 10.5322C6.98134 11.0822 7.6882 11.3866 8.46898 11.3866C9.05417 11.3866 9.41176 11.3234 9.99295 11.1161C10.1007 11.0777 10.2193 11.0837 10.3226 11.1328C10.4259 11.1818 10.5056 11.2699 10.544 11.3776C10.5824 11.4854 10.5764 11.6039 10.5273 11.7073C10.4783 11.8106 10.3902 11.8902 10.2825 11.9286C9.61042 12.1679 9.15273 12.2489 8.46898 12.2489C7.44396 12.2489 6.51103 11.8467 5.84175 11.1164C5.16261 10.3739 4.83675 9.38641 4.92853 8.33552C5.01816 7.30896 5.49679 6.34492 6.27664 5.62143C7.0565 4.89794 8.04979 4.49755 9.07019 4.49755C10.2159 4.49755 11.1624 4.86961 11.8074 5.57338C12.4261 6.24821 12.7163 7.19808 12.6248 8.24866Z" fill="white"/>
<path d="M8.69194 7.29436C8.23518 7.36612 7.7199 7.78223 7.66507 8.41116C7.63427 8.75181 7.72667 9.06473 7.91363 9.26955C7.9833 9.3463 8.06855 9.40729 8.16367 9.44845C8.2588 9.48961 8.36162 9.51 8.46525 9.50825C9.0908 9.50825 9.53493 9.0481 9.59715 8.33601C9.59904 8.31452 9.60254 8.29321 9.60762 8.27225L9.70618 7.4884C9.40086 7.30797 9.04229 7.23937 8.69194 7.29436Z" fill="white"/>
</svg>
